<?xml version="1.0" encoding="utf-8"?>
<!-- Generator: Adobe Illustrator 23.0.0, SVG Export Plug-In . SVG Version: 6.00 Build 0)  -->
<svg version="1.1" id="图层_1" xmlns="http://www.w3.org/2000/svg" xmlns:xlink="http://www.w3.org/1999/xlink" x="0px" y="0px"
	 viewBox="0 0 200 200" style="enable-background:new 0 0 200 200;" xml:space="preserve">
<style type="text/css">
	.st0{fill:#767676;}
</style>
<path class="st0" d="M181.3,86.7h-21.1V64.5c0-3.5-2.8-6.3-6.3-6.3H92.4L69.5,36.4c-0.3-0.3-0.7-0.4-1.1-0.4H18.8
	c-3.5,0-6.3,2.8-6.3,6.3v115.6c0,3.5,2.8,6.3,6.3,6.3h136.3c2.5,0,4.8-1.5,5.8-3.9l26.2-64.8c0.3-0.7,0.4-1.5,0.4-2.3
	C187.5,89.5,184.7,86.7,181.3,86.7z M26.6,50h36.8l23.4,22.3h59.4v14.4H46.5c-2.5,0-4.8,1.5-5.8,3.9l-14.1,35V50z M150.6,150H31.1
	l20.2-50h119.6L150.6,150z"/>
</svg>
