<?xml version="1.0" encoding="utf-8"?>
<!-- Generator: Adobe Illustrator 23.0.0, SVG Export Plug-In . SVG Version: 6.00 Build 0)  -->
<svg version="1.1" id="图层_1" xmlns="http://www.w3.org/2000/svg" xmlns:xlink="http://www.w3.org/1999/xlink" x="0px" y="0px"
	 viewBox="0 0 200 200" style="enable-background:new 0 0 200 200;" xml:space="preserve">
<style type="text/css">
	.st0{fill:#767676;}
</style>
<path class="st0" d="M171.9,35.9h-32.8V23.4c0-0.9-0.7-1.6-1.6-1.6h-10.9c-0.9,0-1.6,0.7-1.6,1.6v12.5H75V23.4
	c0-0.9-0.7-1.6-1.6-1.6H62.5c-0.9,0-1.6,0.7-1.6,1.6v12.5H28.1c-3.5,0-6.3,2.8-6.3,6.3v129.7c0,3.5,2.8,6.3,6.3,6.3h143.8
	c3.5,0,6.3-2.8,6.3-6.3V42.2C178.1,38.7,175.3,35.9,171.9,35.9z M164.1,164.1H35.9V89.8h128.1V164.1z M35.9,76.6V50h25v9.4
	c0,0.9,0.7,1.6,1.6,1.6h10.9c0.9,0,1.6-0.7,1.6-1.6V50h50v9.4c0,0.9,0.7,1.6,1.6,1.6h10.9c0.9,0,1.6-0.7,1.6-1.6V50h25v26.6H35.9z"
	/>
</svg>
