<?xml version="1.0" encoding="utf-8"?>
<!-- Generator: Adobe Illustrator 23.0.0, SVG Export Plug-In . SVG Version: 6.00 Build 0)  -->
<svg version="1.1" id="图层_1" xmlns="http://www.w3.org/2000/svg" xmlns:xlink="http://www.w3.org/1999/xlink" x="0px" y="0px"
	 viewBox="0 0 200 200" style="enable-background:new 0 0 200 200;" xml:space="preserve">
<style type="text/css">
	.st0{fill:#767676;}
</style>
<path class="st0" d="M94.4,154.4l73.9-73.9c0.3-0.3,0.5-0.8,0.4-1.2l-5-58.9c-0.1-1.5-1.3-2.7-2.9-2.9l-58.9-5
	c-0.4,0-0.9,0.1-1.2,0.4L26.9,86.9c-0.6,0.6-0.6,1.6,0,2.2l65.3,65.3C92.8,155,93.8,155,94.4,154.4z M106.6,27.1l43.9,3.7l3.7,43.9
	l-60.9,60.9L45.7,88C45.7,88,106.6,27.1,106.6,27.1z"/>
<path class="st0" d="M118.4,63.4c3.7,3.7,9.6,3.7,13.3,0c3.7-3.7,3.7-9.6,0-13.3c0,0,0,0,0,0c-3.7-3.7-9.6-3.7-13.3,0
	C114.7,53.8,114.7,59.8,118.4,63.4C118.3,63.4,118.3,63.4,118.4,63.4z"/>
<path class="st0" d="M173.8,105.4l-7.7-7.7c-0.6-0.6-1.6-0.6-2.2,0l-70.7,70.6L46.7,122c-0.6-0.6-1.6-0.6-2.2,0l-7.7,7.7
	c-0.6,0.6-0.6,1.6,0,2.2l47.5,47.4l7.7,7.7c0.6,0.6,1.6,0.6,2.2,0l79.6-79.4C174.4,107,174.4,106,173.8,105.4L173.8,105.4z"/>
</svg>
