<?xml version="1.0" encoding="utf-8"?>
<!-- Generator: Adobe Illustrator 23.0.0, SVG Export Plug-In . SVG Version: 6.00 Build 0)  -->
<svg version="1.1" id="图层_1" xmlns="http://www.w3.org/2000/svg" xmlns:xlink="http://www.w3.org/1999/xlink" x="0px" y="0px"
	 viewBox="0 0 200 200" style="enable-background:new 0 0 200 200;" xml:space="preserve">
<style type="text/css">
	.st0{fill:#767676;}
</style>
<path class="st0" d="M184,95c-18.5-39-46.5-58.6-84-58.6C62.5,36.3,34.5,56,16,95c-1.5,3.2-1.5,6.9,0,10.1
	c18.5,39,46.5,58.6,84,58.6c37.5,0,65.5-19.6,84-58.7C185.5,101.9,185.5,98.2,184,95z M100,149.6c-31.5,0-54.6-16-70.8-49.6
	C45.4,66.4,68.5,50.4,100,50.4s54.6,16,70.8,49.6C154.6,133.6,131.5,149.6,100,149.6z"/>
<path class="st0" d="M99.2,65.6c-19,0-34.4,15.4-34.4,34.4s15.4,34.4,34.4,34.4s34.4-15.4,34.4-34.4S118.2,65.6,99.2,65.6z
	 M99.2,121.9c-12.1,0-21.9-9.8-21.9-21.9s9.8-21.9,21.9-21.9s21.9,9.8,21.9,21.9S111.3,121.9,99.2,121.9z"/>
</svg>
