<?xml version="1.0" encoding="utf-8"?>
<!-- Generator: Adobe Illustrator 23.0.0, SVG Export Plug-In . SVG Version: 6.00 Build 0)  -->
<svg version="1.1" id="图层_1" xmlns="http://www.w3.org/2000/svg" xmlns:xlink="http://www.w3.org/1999/xlink" x="0px" y="0px"
	 viewBox="0 0 750 565" style="enable-background:new 0 0 750 565;" xml:space="preserve">
<style type="text/css">
	.st0{fill:#767676;}
	.st1{fill:none;}
</style>
<path class="st0" d="M733.7,0.8H16.3c-4,0-7.3,3.3-7.3,7.3v58.6c0,4,3.3,7.3,7.3,7.3h717.4c4,0,7.3-3.3,7.3-7.3V8.1
	C741,4.1,737.7,0.8,733.7,0.8L733.7,0.8z"/>
<path class="st0" d="M727.8,492H22.2c-4,0-7.2,3.2-7.2,7.2v57.6c0,4,3.2,7.2,7.2,7.2h705.6c4,0,7.2-3.2,7.2-7.2v-57.6
	C735,495.2,731.8,492,727.8,492L727.8,492z"/>
<path class="st0" d="M730.7,250.4H19.3c-4,0-7.3,3.3-7.3,7.3v58.1c0,4,3.3,7.3,7.3,7.3h711.5c4,0,7.3-3.3,7.3-7.3v-58.1
	C738,253.7,734.7,250.4,730.7,250.4L730.7,250.4z"/>
<path class="st0" d="M688.6,250.4"/>
<rect x="55.1" class="st1" width="639.8" height="565"/>
</svg>
