<?xml version="1.0" encoding="UTF-8"?>
<svg width="128px" height="128px" viewBox="0 0 128 128" version="1.1" xmlns="http://www.w3.org/2000/svg" xmlns:xlink="http://www.w3.org/1999/xlink">
    <!-- Generator: Sketch 51.3 (57544) - http://www.bohemiancoding.com/sketch -->
    <title>全产品价格保护</title>
    <desc>Created with Sketch.</desc>
    <defs></defs>
    <g id="Page-1" stroke="none" stroke-width="1" fill="none" fill-rule="evenodd">
        <g id="Group-Copy-4" transform="translate(-56.000000, 0.000000)" fill-rule="nonzero">
            <g id="全产品价格保护" transform="translate(56.000000, 0.000000)">
                <g id="(2)全产品价格保护" transform="translate(16.000000, 16.000000)">
                    <circle id="Oval" fill="#FFCD55" cx="47.7866667" cy="48.1357576" r="23.6218182"></circle>
                    <path d="M47.7866667,72.969697 C37.7365899,72.973619 28.6741097,66.9220992 24.8262999,57.6377889 C20.9784902,48.3534786 23.1033899,37.6654367 30.2098678,30.5589588 C37.3163458,23.4524808 48.0043877,21.3275811 57.288698,25.1753909 C66.5730083,29.0232007 72.624528,38.0856808 72.6206061,48.1357576 C72.6045755,61.844518 61.4954271,72.9536664 47.7866667,72.969697 Z M47.7866667,25.7163636 C38.7179869,25.7124412 30.5400867,31.1722636 27.0669349,39.5495057 C23.5937832,47.9267478 25.5094971,57.5713189 31.9206354,63.9852315 C38.3317738,70.399144 47.9755152,72.3190301 56.3542591,68.8495029 C64.733003,65.3799756 70.1963628,57.2044382 70.1963636,48.1357576 C70.1856794,35.7620815 60.160337,25.732401 47.7866667,25.7163636 Z" id="Shape" fill="#3E3A39"></path>
                    <path d="M46.3224242,49.8521212 L41.6969697,49.8521212 C40.8145455,49.7648485 40.32,49.4060606 40.2327273,48.7854545 C40.2327273,47.990303 40.7175758,47.5927273 41.6969697,47.5927273 L44.8872727,47.5927273 L39.4375758,39.2145455 C39.4285613,39.1128021 39.3797785,39.018721 39.3018182,38.9527273 C39.1313439,38.6124931 38.9980484,38.2548711 38.9042424,37.8860606 C38.9340307,37.236349 39.4567351,36.7178599 40.1066667,36.6933333 C40.7813087,36.6758043 41.40361,37.0552563 41.6969697,37.6630303 L47.8157576,46.8363636 L53.9248485,37.6630303 C54.2234373,37.0554309 54.848046,36.6768802 55.5248485,36.6933333 C56.1729969,36.7181937 56.6927154,37.2379122 56.7175758,37.8860606 C56.6471455,38.2617695 56.5126624,38.6225776 56.32,38.9527273 C56.2420397,39.018721 56.1932569,39.1128021 56.1842424,39.2145455 L50.7345455,47.5927273 L53.9248485,47.5927273 C54.8945455,47.5927273 55.3890909,47.990303 55.3890909,48.7854545 C55.3018182,49.4060606 54.8169697,49.7551515 53.9248485,49.8521212 L49.270303,49.8521212 L49.270303,52.2472727 L53.9248485,52.2472727 C54.8945455,52.2472727 55.3890909,52.6448485 55.3890909,53.44 C55.3018182,54.0606061 54.8169697,54.409697 53.9248485,54.5066667 L49.270303,54.5066667 L49.270303,59.8206061 C49.270303,60.7030303 48.7854545,61.1490909 47.8157576,61.1490909 C46.8460606,61.1490909 46.3515152,60.7030303 46.3515152,59.8206061 L46.3515152,54.5066667 L41.6969697,54.5066667 C40.8145455,54.4193939 40.32,54.0606061 40.2327273,53.44 C40.2327273,52.6448485 40.7175758,52.2472727 41.6969697,52.2472727 L46.3515152,52.2472727 L46.3224242,49.8521212 Z" id="Shape" fill="#3E3A39"></path>
                    <path d="M38.2351515,18.3563636 C43.9078788,15.4472727 57.1539394,7.33090909 62.3030303,13.6339394 C65.2121212,17.2509091 58.5212121,20.6351515 55.7672727,22.0315152 C51.8811702,23.9425771 47.8588534,25.5631722 43.7333333,26.88 C43.7333333,26.88 38.4872727,37.5466667 20.2375758,36.3151515 L12.470303,18.4242424 C12.470303,18.4242424 32.8339394,6.26424242 35.7430303,4.58666667 C45.5757576,-0.96969697 56.6593939,3.30666667 66.4533333,6.63272727 C71.0884848,8.20363636 87.990303,11.9466667 87.3212121,17.609697 C86.5454545,24.0872727 77.2751515,21.12 74.3563636,20.3345455 L62.6133333,16.9793939" id="Shape" fill="#FFFFFF"></path>
                    <path d="M23.1951515,37.5951515 C22.2254545,37.5951515 21.2072727,37.5951515 20.150303,37.4884848 C19.6995231,37.4548658 19.3041376,37.1751119 19.1224242,36.7612121 L11.3648485,18.9284848 C11.1218016,18.3712294 11.3291564,17.7201353 11.849697,17.4060606 C12.6836364,16.9115152 32.2133333,5.2169697 35.1224242,3.54909091 C44.8678788,-2.0169697 55.6412121,1.66787879 65.1830303,4.91636364 L66.8412121,5.47878788 C67.5781818,5.73090909 68.6739394,6.05090909 69.9442424,6.44848485 C79.689697,9.27030303 89.1539394,12.470303 88.5236364,17.7842424 C88.4085794,19.4075032 87.5587115,20.8894156 86.2157576,21.8084848 C82.9672727,23.990303 77.3333333,22.4387879 74.5793939,21.6921212 L74.0072727,21.5369697 L63.1175758,18.4242424 C61.44,20.5478788 58.2690909,22.1575758 56.329697,23.1175758 C52.5417023,24.9743692 48.6234499,26.5526893 44.6060606,27.84 C43.3551515,29.8666667 37.8181818,37.5951515 23.1951515,37.5951515 Z M21.0521212,35.1127273 C37.7018182,35.9660606 42.5987879,26.3854545 42.6472727,26.3078788 C42.7859419,26.0146885 43.0380285,25.7906115 43.3454545,25.6872727 C47.4121306,24.4020337 51.3791238,22.820422 55.2145455,20.9551515 C56.7563636,20.169697 60.4121212,18.3078788 61.5078788,16.4654545 L61.5951515,16.310303 C61.6880936,16.1431352 61.7566657,15.9635415 61.7987879,15.7769697 C61.887179,15.274244 61.7242324,14.7600569 61.3624242,14.4 C57.3866667,9.55151515 46.6133333,15.2727273 40.8339394,18.3563636 C40.0775758,18.7636364 39.3890909,19.1321212 38.7781818,19.4424242 C38.1817272,19.7404352 37.4565702,19.5007597 37.15519,18.9060004 C36.8538097,18.311241 37.0893793,17.5847399 37.6824242,17.28 C38.2739394,16.9793939 38.9527273,16.6109091 39.689697,16.2230303 C46.5454545,12.6060606 58.0072727,6.45818182 63.2436364,12.8678788 C64.0576913,13.7626017 64.4152518,14.9818831 64.2133333,16.1745455 L75.2872727,19.3260606 C77.4690909,19.9272727 82.569697,21.3333333 84.8969697,19.7721212 C85.6324036,19.2241045 86.0784853,18.3711963 86.1090909,17.4545455 C86.5551515,13.7406061 74.4727273,10.2206061 69.2654545,8.72727273 C67.9757576,8.34909091 66.8509091,8.02909091 66.0654545,7.75757576 L64.4072727,7.19515152 C54.9430303,3.95636364 45.1587879,0.610909091 36.3636364,5.63393939 C33.8230303,7.08848485 18.0072727,16.5333333 14.0606061,18.9187879 L21.0521212,35.1127273 Z" id="Shape" fill="#3E3A39"></path>
                    <rect id="Rectangle-path" fill="#DCDDDD" transform="translate(11.564769, 29.943446) rotate(-23.140000) translate(-11.564769, -29.943446) " x="6.31870868" y="17.2016278" width="10.4921212" height="25.4836364"></rect>
                    <path d="M11.7527273,44.9260606 C11.5997972,44.9260742 11.448315,44.8964364 11.3066667,44.8387879 C11.0071488,44.7233188 10.7662362,44.4928806 10.6375758,44.1987879 L0.620606061,20.7612121 C0.494577343,20.4654567 0.491204154,20.1317489 0.611228614,19.8335063 C0.731253073,19.5352637 0.964842556,19.2969189 1.26060606,19.1709091 L10.9575758,15.049697 C11.2518061,14.9241121 11.5845575,14.9241121 11.8787879,15.049697 C12.1807528,15.1664762 12.4222707,15.4009935 12.5478788,15.6993939 L22.5163636,39.1175758 C22.6478495,39.4274365 22.6478495,39.777412 22.5163636,40.0872727 C22.3964724,40.3849658 22.162551,40.6223785 21.8666667,40.7466667 L12.169697,44.8678788 C12.0356075,44.9133423 11.8941402,44.933082 11.7527273,44.9260606 Z M3.32606061,20.9260606 L12.3927273,42.1236364 L19.8109091,38.9527273 L10.7442424,17.7551515 L3.32606061,20.9260606 Z" id="Shape" fill="#333333"></path>
                    <path d="M57.5709091,77.7212121 C51.8884848,80.630303 38.6424242,88.7466667 33.4933333,82.4436364 C30.5842424,78.8266667 37.2751515,75.4521212 40.0290909,74.0460606 C43.9185043,72.134945 47.9440483,70.5143556 52.0727273,69.1975758 C52.0727273,69.1975758 57.3090909,58.5309091 75.5587879,59.7624242 L83.3163636,77.5951515 C83.3163636,77.5951515 62.9527273,89.7551515 60.0436364,91.4327273 C50.2109091,97.0569697 39.1369697,92.7321212 29.3430303,89.4060606 C24.7078788,87.8448485 7.80606061,84.0921212 8.48484848,78.4290909 C9.25090909,71.9515152 18.5212121,74.9284848 21.44,75.7042424 L33.1927273,79.0593939" id="Shape" fill="#FFFFFF"></path>
                    <path d="M49.3866667,95.3987879 C43.0060606,95.3987879 36.5575758,93.1975758 30.6133333,91.1612121 L28.9551515,90.5987879 C28.2181818,90.3466667 27.1224242,90.0266667 25.8521212,89.6290909 C16.1551515,86.8072727 6.64242424,83.6072727 7.28242424,78.2933333 C7.40076663,76.6734804 8.24560199,75.1941274 9.58060606,74.2690909 C12.8290909,72.0872727 18.4727273,73.6387879 21.2169697,74.3854545 L21.7793939,74.5406061 L32.7175758,77.6630303 C34.3951515,75.5393939 37.5660606,73.9393939 39.4472727,72.969697 C43.2655605,71.0952925 47.216396,69.5039388 51.2678788,68.2084848 C52.5575758,66.0460606 58.8121212,57.3866667 75.6751515,58.5115152 C76.1259315,58.5451342 76.5213169,58.8248881 76.7030303,59.2387879 L84.4606061,77.0715152 C84.703653,77.6287706 84.4962981,78.2798647 83.9757576,78.5939394 C83.1418182,79.0884848 63.6121212,90.7830303 60.7030303,92.4509091 C57.2614981,94.4256281 53.3542432,95.4434563 49.3866667,95.3987879 Z M13.9830303,75.6363636 C12.9213927,75.5777021 11.8650664,75.8232811 10.9381818,76.3442424 C10.2035771,76.8748562 9.74754095,77.7085474 9.6969697,78.6133333 C9.25090909,82.3272727 21.3333333,85.8375758 26.5406061,87.3406061 C27.830303,87.7187879 28.9551515,88.0484848 29.7406061,88.310303 L31.4084848,88.8824242 C40.8630303,92.1212121 50.6472727,95.4666667 59.4521212,90.4339394 C61.9830303,88.9793939 77.7987879,79.5345455 81.7551515,77.1490909 L74.7442424,60.9648485 C58.1818182,60.1212121 53.3333333,69.3818182 53.1587879,69.8181818 C53.0131646,70.1076228 52.7585372,70.3273698 52.4509091,70.4290909 C48.3854707,71.717796 44.4187264,73.2993084 40.5818182,75.1612121 C39.04,75.9466667 35.3842424,77.8084848 34.2884848,79.6606061 L34.2012121,79.7963636 C34.1167694,79.9696811 34.0517286,80.1517954 34.0072727,80.3393939 C33.9075935,80.8409976 34.0681026,81.3590044 34.4339394,81.7163636 C38.409697,86.5648485 49.1830303,80.8436364 54.9721212,77.76 C55.7284848,77.3527273 56.4169697,76.9842424 57.0181818,76.6836364 C57.4057872,76.4545675 57.8884239,76.4592118 58.2715493,76.6956974 C58.6546747,76.9321829 58.8751556,77.3615405 58.84412,77.8107034 C58.8130843,78.2598662 58.5356462,78.6548193 58.1236364,78.8363636 C57.5321212,79.1369697 56.8533333,79.5054545 56.1163636,79.8933333 C49.2606061,83.5490909 37.7890909,89.6678788 32.5527273,83.2484848 C31.7441431,82.3545874 31.3871588,81.1408408 31.5830303,79.9515152 L20.5381818,76.7515152 C18.4080283,76.1085569 16.2059624,75.7339451 13.9830303,75.6363636 Z" id="Shape" fill="#3E3A39"></path>
                    <rect id="Rectangle-path" fill="#DCDDDD" transform="translate(84.230046, 66.123683) rotate(156.860000) translate(-84.230046, -66.123683) " x="78.983985" y="53.3818645" width="10.4921212" height="25.4836364"></rect>
                    <path d="M84.4121212,81.1345455 C84.2597797,81.1290087 84.1092556,81.0995583 83.9660606,81.0472727 C83.6676194,80.9250533 83.4279121,80.692294 83.2969697,80.3975758 L73.289697,56.96 C73.16039,56.6657555 73.1542646,56.3319905 73.2726878,56.0331994 C73.3911111,55.7344084 73.6242251,55.4954639 73.92,55.369697 L83.6169697,51.2484848 C83.9112001,51.1228999 84.2439515,51.1228999 84.5381818,51.2484848 C84.8401467,51.3652641 85.0816646,51.5997814 85.2072727,51.8981818 L95.2242424,75.3260606 C95.352983,75.6215225 95.3577227,75.9562989 95.2373982,76.255287 C95.1170737,76.5542751 94.8817585,76.792444 94.5842424,76.9163636 L84.9357576,81.0375758 C84.7713777,81.1109859 84.5918881,81.1442248 84.4121212,81.1345455 Z M75.9951515,57.1248485 L85.0521212,78.3224242 L92.470303,75.1515152 L83.3939394,53.9539394 L75.9951515,57.1248485 Z" id="Shape" fill="#3E3A39"></path>
                </g>
            </g>
        </g>
    </g>
</svg>