<?xml version="1.0" encoding="UTF-8"?>
<svg width="128px" height="128px" viewBox="0 0 128 128" version="1.1" xmlns="http://www.w3.org/2000/svg" xmlns:xlink="http://www.w3.org/1999/xlink">
    <!-- Generator: Sketch 51.3 (57544) - http://www.bohemiancoding.com/sketch -->
    <title>志同道合的领队</title>
    <desc>Created with Sketch.</desc>
    <defs></defs>
    <g id="Page-1" stroke="none" stroke-width="1" fill="none" fill-rule="evenodd">
        <g id="Group-Copy-9" transform="translate(-57.000000, 0.000000)" fill-rule="nonzero">
            <g id="志同道合的领队" transform="translate(57.000000, 0.000000)">
                <g id="Group-5" transform="translate(21.000000, 14.000000)">
                    <path d="M19.4785567,6.77284404 L28.9740206,16.2055046" id="Shape" stroke="#2D2D2D" stroke-width="2.20183486" fill="#FFFFFF" stroke-linecap="round" stroke-linejoin="round"></path>
                    <path d="M63.0814433,6.77284404 L53.5948454,16.2055046" id="Shape" stroke="#2D2D2D" stroke-width="2.20183486" fill="#FFFFFF" stroke-linecap="round" stroke-linejoin="round"></path>
                    <path d="M41.28,0.114495413 L41.28,13.44" id="Shape" stroke="#2D2D2D" stroke-width="2.20183486" fill="#FFFFFF" stroke-linecap="round" stroke-linejoin="round"></path>
                    <rect id="Rectangle-path" stroke="#3E3A39" stroke-width="2.20183486" fill="#FFCC55" transform="translate(32.774872, 43.799664) rotate(19.620000) translate(-32.774872, -43.799664) " x="27.0962127" y="26.7618658" width="11.3573196" height="34.0755963" rx="5.64550459"></rect>
                    <ellipse id="Oval" stroke="#333333" stroke-width="2.20183486" fill="#FFFFFF" stroke-linecap="round" stroke-linejoin="round" cx="18.485567" cy="35.3790826" rx="13.1127835" ry="13.026055"></ellipse>
                    <path d="M19.5051546,48.2377982 L20.0193814,48.2377982 C28.5093949,48.2523728 35.3841364,55.0934667 35.3841237,63.5273394 L35.3841237,88.4433028 C35.3841237,92.5535173 32.0299518,95.8855046 27.8923711,95.8855046 L11.9336082,95.8855046 C7.59873244,95.8757868 4.09117879,92.3796075 4.09608247,88.0733945 L4.09608247,63.5273394 C4.09607976,59.4692472 5.7200966,55.5776207 8.61036904,52.7097686 C11.5006415,49.8419165 15.420046,48.2331229 19.5051546,48.2377982 Z" id="Shape" stroke="#3E3A39" stroke-width="2.20183486" fill="#FFCC55"></path>
                    <rect id="Rectangle-path" stroke="#3E3A39" stroke-width="2.20095395" fill="#DBDCDC" stroke-linecap="round" stroke-linejoin="round" transform="translate(53.176726, 44.158062) rotate(160.114835) translate(-53.176726, -44.158062) " x="47.5003379" y="27.1270807" width="11.3527758" height="34.0619634" rx="5.64550459"></rect>
                    <path d="M58.4800051,48.2378023 L74.4387679,48.2378023 C78.5763486,48.2378023 81.9305205,51.5697896 81.9305205,55.6800042 L81.9305205,80.5959675 C81.9305205,89.040148 75.0395828,95.8855088 66.5391803,95.8855088 L66.0249535,95.8855088 C61.9367752,95.8948662 58.0128107,94.2881404 55.1186997,91.4197803 C52.2245888,88.5514203 50.5981385,84.6571172 50.5981494,80.5959675 L50.5981494,56.0499124 C50.5957791,53.974236 51.4259937,51.9831539 52.9051547,50.5170818 C54.3843156,49.0510098 56.3905193,48.2307727 58.4800051,48.2378023 Z" id="Shape" stroke="#3E3A39" stroke-width="2.20183486" fill="#DBDCDC" stroke-linecap="round" stroke-linejoin="round" transform="translate(66.264332, 72.061653) rotate(180.000000) translate(-66.264332, -72.061653) "></path>
                    <path d="M71.1406186,62.7699083 L74.6870103,80.1379817 C75.1746392,82.5159633 77.9319588,83.960367 80.84,83.3702752 C83.7480412,82.7713761 85.7162887,80.3669725 85.2729897,77.9977982 L81.7265979,60.6209174" id="Shape" stroke="#3E3A39" stroke-width="2.20183486" fill="#DBDCDC" stroke-linecap="round" stroke-linejoin="round"></path>
                    <path d="M14.8948454,62.7699083 L11.3218557,80.146789 C10.8253608,82.5247706 8.07690722,83.9691743 5.16,83.3790826 C2.25195876,82.7801835 0.28371134,80.3757798 0.780206186,78.0066055 L4.32659794,60.6297248" id="Shape" stroke="#3E3A39" stroke-width="2.20183486" fill="#FCCF00" stroke-linecap="round" stroke-linejoin="round"></path>
                    <ellipse id="Oval" stroke="#333333" stroke-width="2.20183486" fill="#FFFFFF" stroke-linecap="round" stroke-linejoin="round" cx="67.3459794" cy="35.3790826" rx="13.1127835" ry="13.026055"></ellipse>
                </g>
            </g>
        </g>
    </g>
</svg>