<?xml version="1.0" encoding="UTF-8"?>
<svg width="128px" height="128px" viewBox="0 0 128 128" version="1.1" xmlns="http://www.w3.org/2000/svg" xmlns:xlink="http://www.w3.org/1999/xlink">
    <!-- Generator: Sketch 51.3 (57544) - http://www.bohemiancoding.com/sketch -->
    <title>支持单人购买</title>
    <desc>Created with Sketch.</desc>
    <defs></defs>
    <g id="Page-1" stroke="none" stroke-width="1" fill="none" fill-rule="evenodd">
        <g id="Group-Copy-8" transform="translate(-55.000000, 0.000000)" fill-rule="nonzero">
            <g id="支持单人购买" transform="translate(55.000000, 0.000000)">
                <g id="Group-4" transform="translate(15.000000, 16.000000)">
                    <rect id="Rectangle-path" stroke="#3E3A39" stroke-width="2.4" fill="#FFCC55" stroke-linecap="round" stroke-linejoin="round" x="1.65320388" y="30.0096" width="83.1407767" height="52.3872" rx="11.8944"></rect>
                    <path d="M13.4563107,31.2096 L80.5071845,31.2096 C80.9558381,31.2096 81.386116,31.3876109 81.703362,31.7044724 C82.020608,32.0213338 82.198835,32.4510902 82.198835,32.8992 L82.198835,49.5072 C82.198835,50.4403403 81.4414572,51.1968 80.5071845,51.1968 L4.45980583,51.1968 C3.52553306,51.1968 2.76815534,50.4403403 2.76815534,49.5072 L2.76815534,41.8752 C2.77346033,35.9831992 7.55715703,31.2095976 13.4563107,31.2096 Z" id="Shape" fill="#DBDCDC"></path>
                    <rect id="Rectangle-path" fill="#3E3A39" x="7.98728155" y="67.2864" width="8.90038835" height="4.2432" rx="1.9296"></rect>
                    <rect id="Rectangle-path" fill="#3E3A39" x="0.59592233" y="48.0192" width="83.2945631" height="4.1088"></rect>
                    <rect id="Rectangle-path" fill="#3E3A39" x="21.4724272" y="67.2864" width="16.4839806" height="4.2432" rx="1.9584"></rect>
                    <path d="M83.8904854,39.6672 L83.8904854,76.896 L52.2969903,71.04 C52.2969903,71.04 75.6340777,30.96 73.8559223,30.96 C72.077767,30.96 83.8904854,39.6672 83.8904854,39.6672 Z" id="Shape" fill="#FFFFFF"></path>
                    <path d="M71.9335922,67.7664 C74.8170874,56.6976 84.7074757,61.7376 84.7074757,61.7376 L86.1876699,58.56 C83.5572442,57.0985515 81.0669524,55.3985934 78.7482524,53.4816 C77.1572534,52.0219923 76.4525705,49.833924 76.8932039,47.7216 C77.9697087,41.4816 83.957767,43.44 87.696699,44.784 C104.853495,50.9376 98.5770874,77.5392 90.4167961,87.024 C80.0458252,99.12 60.8994175,97.248 51.7779612,84.672 C43.4638835,73.2192 43.6657282,55.872 44.0886408,42.192" id="Shape" stroke="#3E3A39" stroke-width="2.4" fill="#FFFFFF" stroke-linecap="round" stroke-linejoin="round"></path>
                    <path d="M74.0097087,29.76 C74.0097087,24.1248 73.452233,13.8528 73.7598058,8.2368 C73.9904854,3.9072 75.6052427,0.2976 79.9112621,0.4896 C85.0823301,0.7296 85.0823301,5.8752 85.0823301,10.2336 L85.0823301,42.3648" id="Shape" stroke="#3E3A39" stroke-width="2.4" fill="#FFFFFF" stroke-linecap="round" stroke-linejoin="round"></path>
                    <path d="M62.2354369,60.9504 L62.0143689,61.0944 C59.359767,62.5883583 55.9967903,61.6986116 54.4307767,59.088 L44.8191262,44.448 C43.9721508,43.2659598 43.6346703,41.7942546 43.882122,40.3618565 C44.1295738,38.9294584 44.9413244,37.6558058 46.1359223,36.8256 L46.3569903,36.6912 C49.0113035,35.1891996 52.3805797,36.0752249 53.9501942,38.688 L63.5618447,53.328 C64.4130734,54.5094899 64.7521567,55.9835419 64.5026035,57.4176365 C64.2530503,58.8517311 63.435882,60.125066 62.2354369,60.9504 Z" id="Shape" stroke="#3E3A39" stroke-width="2.4" fill="#FFFFFF" stroke-linecap="round" stroke-linejoin="round"></path>
                    <path d="M71.5683495,54.8544 L71.3472816,54.9888 C68.6933779,56.4881981 65.3264,55.5973928 63.7636893,52.9824 L54.1520388,38.3424 C53.303139,37.1627227 52.9625673,35.6926419 53.2063746,34.2604318 C53.4501819,32.8282218 54.2580617,31.55317 55.4496117,30.72 L55.6706796,30.5856 C58.3370112,29.0944747 61.7077185,30.0076014 63.2542718,32.64 L72.8659223,47.28 C73.702078,48.4554378 74.0352212,49.9150334 73.7917447,51.3362932 C73.5482683,52.7575529 72.7482132,54.0234904 71.5683495,54.8544 Z" id="Shape" stroke="#3E3A39" stroke-width="2.4" fill="#FFFFFF" stroke-linecap="round" stroke-linejoin="round"></path>
                    <path d="M78.181165,44.88 L77.2776699,45.456 C74.8309291,46.8400606 71.7254854,46.0220352 70.2803883,43.6128 L62.7448544,32.0928 C61.9587545,31.007662 61.6412612,29.6529512 61.8634813,28.3320734 C62.0857014,27.0111956 62.8290656,25.8345275 63.9270874,25.0656 L64.8305825,24.4896 C67.2773233,23.1055394 70.3827671,23.9235648 71.8278641,26.3328 L79.3633981,37.8528 C80.1494979,38.937938 80.4669912,40.2926488 80.2447711,41.6135266 C80.022551,42.9344044 79.2791868,44.1110725 78.181165,44.88 Z" id="Shape" stroke="#3E3A39" stroke-width="2.4" fill="#FFFFFF" stroke-linecap="round" stroke-linejoin="round"></path>
                </g>
            </g>
        </g>
    </g>
</svg>