<?xml version="1.0" encoding="utf-8"?>
<!-- Generator: Adobe Illustrator 23.0.0, SVG Export Plug-In . SVG Version: 6.00 Build 0)  -->
<svg version="1.1" id="图层_1" xmlns="http://www.w3.org/2000/svg" xmlns:xlink="http://www.w3.org/1999/xlink" x="0px" y="0px"
	 viewBox="0 0 800 607.9" style="enable-background:new 0 0 800 607.9;" xml:space="preserve">
<style type="text/css">
	.st0{fill:#484848;}
	.st1{fill:none;}
	.st2{clip-path:url(#SVGID_2_);fill:#484848;}
</style>
<path class="st0" d="M780.5,283.6L419.9,1.9c-4.2-3.3-10.3-0.3-10.3,5v61.8c0,3.9,1.8,7.7,4.9,10.1l288,224.9l-288,224.9
	c-3.1,2.4-4.9,6.2-4.9,10.1v61.8c0,5.4,6.2,8.3,10.3,5l360.6-281.7C793.6,313.7,793.6,293.8,780.5,283.6L780.5,283.6z M780.5,283.6"
	/>
<rect x="409.6" class="st1" width="380.9" height="607.9"/>
<g>
	<defs>
		<rect id="SVGID_1_" x="60.6" y="-1" width="380.9" height="607.9"/>
	</defs>
	<clipPath id="SVGID_2_">
		<use xlink:href="#SVGID_1_"  style="overflow:visible;"/>
	</clipPath>
	<path class="st2" d="M431.5,282.6L70.9,0.9c-4.2-3.3-10.3-0.3-10.3,5v61.8c0,3.9,1.8,7.7,4.9,10.1l288,224.9l-288,224.9
		c-3.1,2.4-4.9,6.2-4.9,10.1v61.8c0,5.4,6.2,8.3,10.3,5l360.6-281.7C444.6,312.7,444.6,292.8,431.5,282.6L431.5,282.6z M431.5,282.6
		"/>
</g>
</svg>
