<?xml version="1.0" encoding="utf-8"?>
<!-- Generator: Adobe Illustrator 23.0.0, SVG Export Plug-In . SVG Version: 6.00 Build 0)  -->
<svg version="1.1" id="图层_1" xmlns="http://www.w3.org/2000/svg" xmlns:xlink="http://www.w3.org/1999/xlink" x="0px" y="0px"
	 viewBox="0 0 716.8 716.8" style="enable-background:new 0 0 716.8 716.8;" xml:space="preserve">
<g>
	<path d="M358.4,0C160.5,0,0,160.5,0,358.4c0,197.9,160.5,358.4,358.4,358.4c197.9,0,358.4-160.5,358.4-358.4
		C716.8,160.5,556.3,0,358.4,0L358.4,0z M358.4,656C194.1,656,60.8,522.7,60.8,358.4c0-164.3,133.3-297.6,297.6-297.6
		C522.7,60.8,656,194.1,656,358.4C656,522.7,522.7,656,358.4,656L358.4,656z M358.4,656"/>
	<path d="M396.6,339.8l-20.3-4.7V227.7c30.4,4.2,49.2,23.2,52.4,46.6c0.4,3.2,3.1,5.5,6.3,5.5h35.9c3.8,0,6.7-3.3,6.4-7
		c-4.9-49.8-45.9-81.8-100.7-87.4v-26.2c0-3.5-2.9-6.4-6.4-6.4h-22.5c-3.5,0-6.4,2.9-6.4,6.4v26.4c-56.6,5.5-101,36.8-101,95.2
		c0,54.1,39.8,80.2,81.7,90.2l19.8,5v114.2c-35.4-4.7-55.2-23.6-59.3-49c-0.5-3-3.2-5.3-6.3-5.3h-37c-3.8,0-6.7,3.2-6.4,7
		c3.6,44,37,84.5,108.2,89.7v25.1c0,3.5,2.9,6.4,6.4,6.4h22.7c3.5,0,6.4-2.9,6.4-6.5l-0.2-25.4c62.6-5.5,107.4-39,107.4-99.2
		C483.7,377.4,448.4,352.6,396.6,339.8L396.6,339.8z M341.7,326.9c-4.5-1.3-8.2-2.5-12-4c-27-9.8-39.6-25.5-39.6-45.8
		c0-29,22-45.6,51.6-49.4V326.9z M376.2,490.4v-107c2.5,0.7,4.7,1.3,7,1.8c37.8,11.5,50.6,27.5,50.6,52.1
		C433.8,468.6,410.3,487.4,376.2,490.4L376.2,490.4z M376.2,490.4"/>
</g>
</svg>
