<?xml version="1.0" encoding="utf-8"?>
<!-- Generator: Adobe Illustrator 23.0.0, SVG Export Plug-In . SVG Version: 6.00 Build 0)  -->
<svg version="1.1" id="图层_1" xmlns="http://www.w3.org/2000/svg" xmlns:xlink="http://www.w3.org/1999/xlink" x="0px" y="0px"
	 viewBox="0 0 564 716.9" style="enable-background:new 0 0 564 716.9;" xml:space="preserve">
<style type="text/css">
	.st0{clip-path:url(#SVGID_2_);}
</style>
<g>
	<g>
		<defs>
			<rect id="SVGID_1_" width="564" height="716.9"/>
		</defs>
		<clipPath id="SVGID_2_">
			<use xlink:href="#SVGID_1_"  style="overflow:visible;"/>
		</clipPath>
		<path class="st0" style="fill:#767676" d="M539.3,324.1c-15.6-35-37.9-66.1-66.3-92.2l-23.3-21.4c-3.4-3-8.9-1.7-10.4,2.6L428.9,243
			c-6.5,18.7-18.4,37.8-35.3,56.6c-1.1,1.2-2.4,1.5-3.3,1.6c-0.9,0.1-2.2-0.1-3.4-1.2c-1.1-1-1.7-2.4-1.6-3.8
			c3-48.2-11.4-102.5-43-161.6C316.2,85.5,280,47.2,234.7,20.5L201.7,1c-4.3-2.6-9.8,0.8-9.6,5.8l1.8,38.4c1.2,26.2-1.8,49.4-9,68.7
			c-8.8,23.6-21.4,45.5-37.6,65.2c-11.4,13.8-24.1,26.2-38,36.9c-33.7,25.8-61.4,59.5-80.2,97.2C10,351.4,0,394,0,436.7
			c0,37.8,7.4,74.3,22.2,108.8c14.2,33.2,34.6,63.1,60.4,88.7c25.9,25.6,56,45.8,89.5,59.8c34.7,14.6,71.5,21.9,109.5,21.9
			c38,0,74.8-7.4,109.5-21.8c33.5-14,63.7-34.1,89.5-59.8c25.9-25.6,46.2-55.5,60.4-88.7c14.7-34.5,22.2-71,22.2-108.8
			C563.2,397.8,555.2,359.8,539.3,324.1L539.3,324.1z M442.4,595.5c-43,42.6-100,65.9-160.8,65.9c-60.8,0-117.8-23.4-160.8-65.9
			C78,553,54.4,496.7,54.4,436.8c0-34.8,7.8-68.2,23.3-99.2c15-30.3,37.4-57.4,64.6-78.3c17.2-13.1,33-28.4,46.9-45.4
			c20-24.4,35.7-51.6,46.6-80.8c4.3-11.6,7.6-24,9.7-37.2c19.3,17.8,35.4,39.2,49,64.3c26.7,50.1,39,94.6,36.6,132.6
			c-1.1,18.2,6,35.6,19.5,47.8c11.8,10.6,27,15.9,42.7,15c15.8-0.8,30.2-7.8,40.8-19.5c10.6-11.9,19.8-24.1,27.5-36.5
			c11.2,14.3,20.6,29.9,28,46.7c12.7,28.6,19.2,59.1,19.2,90.5C508.8,496.7,485.2,553.1,442.4,595.5L442.4,595.5z M442.4,595.5"/>
	</g>
</g>
</svg>
