<?xml version="1.0" encoding="UTF-8"?>
<svg width="16px" height="16px" viewBox="0 0 16 16" version="1.1" xmlns="http://www.w3.org/2000/svg" xmlns:xlink="http://www.w3.org/1999/xlink">
    <!-- Generator: Sketch 51.3 (57544) - http://www.bohemiancoding.com/sketch -->
    <title>二维码</title>
    <desc>Created with Sketch.</desc>
    <defs></defs>
    <g id="Page-1" stroke="none" stroke-width="1" fill="none" fill-rule="evenodd">
        <g id="PDP" transform="translate(-1045.000000, -494.000000)" fill="#3C3C3C" fill-rule="nonzero">
            <g id="Right-Copy" transform="translate(940.000000, 104.000000)">
                <g id="Group-2" transform="translate(105.000000, 390.000000)">
                    <path d="M8.88889421,0 L8.88889421,7.11111467 L15.999984,7.11111467 L15.999984,0 L8.88889421,0 Z M15.1110978,6.22222933 L9.77774846,6.22222933 L9.77774846,0.888885341 L15.1110978,0.888885341 L15.1110978,6.22222933 Z M1.77777246,5.333328 L5.33333334,5.333328 L5.33333334,1.77777067 L1.77777246,1.77777067 L1.77777246,5.333328 Z M0,16 L7.11112177,16 L7.11112177,8.88888533 L0,8.88888533 L0,16 Z M0.888886229,9.77778666 L6.22223554,9.77778666 L6.22223554,15.1111306 L0.888886229,15.1111306 L0.888886229,9.77778666 Z M14.2222116,1.77777067 L10.6666507,1.77777067 L10.6666507,5.333328 L14.2222116,5.333328 L14.2222116,1.77777067 Z M0,7.11111467 L7.11112177,7.11111467 L7.11112177,0 L0,0 L0,7.11111467 Z M0.888886229,0.888885341 L6.22223554,0.888885341 L6.22223554,6.22222933 L0.888886229,6.22222933 L0.888886229,0.888885341 Z M14.2222116,16 L16,16 L16,12.4444427 L14.2222116,12.4444427 L14.2222116,16 Z M14.2222116,10.666656 L16,10.666656 L16,8.88888533 L14.2222116,8.88888533 L14.2222116,10.666656 Z M1.77777246,14.2222133 L5.33333334,14.2222133 L5.33333334,10.666656 L1.77777246,10.666656 L1.77777246,14.2222133 Z M11.5555369,8.88888533 L8.88889421,8.88888533 L8.88889421,11.5555573 L11.5555369,11.5555573 L11.5555369,12.4444427 L13.3333253,12.4444427 L13.3333253,10.666656 L11.5555369,10.666656 L11.5555369,8.88888533 Z M8.88889421,16 L12.4444231,16 L12.4444231,14.2222133 L8.88889421,14.2222133 L8.88889421,16 Z" id="二维码"></path>
                </g>
            </g>
        </g>
    </g>
</svg>