<?xml version="1.0" encoding="UTF-8"?>
<svg width="24px" height="24px" viewBox="0 0 24 24" version="1.1" xmlns="http://www.w3.org/2000/svg" xmlns:xlink="http://www.w3.org/1999/xlink">
    <!-- Generator: Sketch 50.2 (55047) - http://www.bohemiancoding.com/sketch -->
    <title>二次确认_icon</title>
    <desc>Created with Sketch.</desc>
    <defs></defs>
    <g id="Mobile" stroke="none" stroke-width="1" fill="none" fill-rule="evenodd">
        <g id="PDP" transform="translate(-16.000000, -615.000000)" fill-rule="nonzero">
            <g id="提示" transform="translate(0.000000, 600.000000)">
                <g id="二次确认_icon" transform="translate(16.000000, 15.000000)">
                    <path d="M0,12 C8.11624501e-16,18.627417 5.372583,24 12,24 C18.627417,24 24,18.627417 24,12 C24,5.372583 18.627417,4.05812251e-16 12,0 C5.372583,-4.05812251e-16 8.11624501e-16,5.372583 0,12 Z" id="Shape" fill="#E15F55"></path>
                    <g id="Group" transform="translate(7.000000, 6.000000)" fill="#FFFFFF">
                        <path d="M3.125,2 L1.24625,2 C0.558749999,2 0,2.55812499 0,3.24624999 L0,10.75375 C0,11.44125 0.558125005,12 1.24625,12 L8.75375,12 C9.44125,12 10,11.441875 10,10.75375 L10,3.24624999 C10,2.55875 9.44187499,2 8.75375,2 L6.875,2 L6.875,3.24999999 L8.12375,3.24999999 C8.46937499,3.24999999 8.75,3.53499999 8.75,3.87624999 L8.75,10.12375 C8.75,10.46875 8.465,10.75 8.12375,10.75 L1.87625,10.75 C1.53109229,10.7482904 1.25170959,10.4689077 1.25,10.12375 L1.25,3.87624999 C1.25,3.53124999 1.535,3.24999999 1.87625,3.24999999 L3.125,3.24999999 L3.125,2 Z" id="Shape"></path>
                        <path d="M4.3922,7.50829556 L3.5804,6.63404197 C3.47320077,6.51779677 3.32702481,6.4523725 3.1745,6.4523725 C3.02197519,6.4523725 2.87579922,6.51779677 2.7686,6.63404197 C2.66029377,6.7499195 2.59943534,6.90717959 2.59943534,7.07116876 C2.59943534,7.23515794 2.66029377,7.39241802 2.7686,7.50829556 L3.9866,8.81839029 C4.09349,8.93437023 4.23921858,8.99975786 4.39134977,8.99999933 C4.54348096,9.0002408 4.68938973,8.93531606 4.7966,8.81967595 L7.2338,6.19691517 C7.45618768,5.95474347 7.45565299,5.5660584 7.23259999,5.32459008 C7.12571,5.20861014 6.97998142,5.1432225 6.82785023,5.14298103 C6.67571903,5.14273956 6.52981026,5.20766429 6.42259999,5.32330441 L4.3922,7.50829556 Z M2,1.92850057 C2,0.863325429 2.8094,0 3.8,0 L6.2,0 C7.1942,0 8,0.865896757 8,1.92850057 C8,2.99367572 7.1906,3.85700115 6.2,3.85700115 L3.8,3.85700115 C2.8058,3.85700115 2,2.99110439 2,1.92850057 Z M3.2,1.92850057 C3.2,2.28591601 3.4664,2.57133409 3.794,2.57133409 L6.206,2.57133409 C6.53502532,2.56780878 6.80001645,2.28103238 6.8,1.92850057 C6.8,1.57108514 6.5336,1.28566705 6.206,1.28566705 L3.794,1.28566705 C3.46497468,1.28919237 3.19998355,1.57596877 3.2,1.92850057 Z" id="Shape"></path>
                    </g>
                </g>
            </g>
        </g>
    </g>
</svg>