<svg t="1550576052974" class="icon" style="width: 2em; height: 2em;vertical-align: middle;fill: #fff;overflow: hidden;" viewBox="0 0 1024 1024" version="1.1" xmlns="http://www.w3.org/2000/svg" p-id="1922" data-spm-anchor-id="a313x.7781069.0.i0"><path d="M959.7 495.7c0 10.8-8.3 19.5-19.1 19.5-10.8 0-19.5-8.8-19.5-19.6 0-0.8 0.1-1.6 0.2-2.4-3.1-28.8-41.3-325.3-332.7-375.3l0.1-0.8c-7.8-2.6-13.4-9.8-13.4-18.5 0-10.8 8.3-19.6 19.1-19.6 3 0 5.7 0.7 8.2 1.9 50.4 10.4 335.1 83.8 357.2 414.7L959.7 495.7 959.7 495.7zM505.3 110.7l0.1 0.8c0 0-0.8-0.1-2.4-0.1-1.3 0.3-2.7 0.4-4.1 0.4-1.6 0-3.2-0.2-4.7-0.6-46.7 0-229.2 14.1-353.6 224.4l-1.2-1.2c-3 2.5-6.8 4.2-11.1 4.2-9.6 0-17.4-7.8-17.4-17.5 0-4.6 1.7-8.7 4.4-11.8C121.9 295.5 225.7 89.3 493 73.5c1.7-0.5 3.5-0.9 5.5-0.9 10.8 0 19.5 8.8 19.5 19.6C518 100.8 512.8 108 505.3 110.7L505.3 110.7zM123 391.4c0 3.2-0.7 6.1-1.9 8.7-38.8 115.6 6.6 236.3 6.6 236.3l-0.3 0.1c0.9 2.3 1.5 4.8 1.5 7.4 0 10.6-8.2 19.3-18.8 19.3-9 0-16.5-6.2-18.6-14.6l-2.2 0.7c-53-98.5-6.4-268.9-6.4-268.9l1.7 0.8c3.4-6.3 9.9-10.6 17.7-10.6C113.7 370.6 123 380 123 391.4L123 391.4zM140.5 732.5c0 0 19.9-67.1 0-153.6 0 0-38.7-253.9 160-377.7l0.2 0.2c3-3.1 7.3-5 12-5 9.6 0 17.4 7.8 17.4 17.5 0 4.8-1.8 9.1-4.8 12.2l0.8 0.8c0 0-161.3 83.2-153.7 313.7 0 0 30.4 140.2 0.9 209.1-1.4 9.2-8.9 16.2-18.5 16.2-10.6 0-19.3-8.6-19.3-19.3 0-5.3 2.1-10.1 5.4-13.6L140.5 732.5 140.5 732.5zM198.2 783.7c0 0 44.3-96.8 12.8-224.1 0 0-20-157.6 70.4-243.3 0 0 115.8-141.4 307.3-96l-0.1 0.3c6 2.5 10.3 8.5 10.3 15.5 0 9.2-7.1 16.7-16.3 16.7-2.2 0-4.4-0.5-6.4-1.3l-0.4 0.9c0 0-213.4-46-313.7 153.6 0 0-36.7 86.4-6.4 179.3 0 0 30.6 143.9-32 230.4l-1.4-1.7c-2.8 1.8-6.2 2.8-9.8 2.8-10.6 0-19.2-8.6-19.2-19.3 0-5.2 2-9.9 5.2-13.4L198.2 783.7 198.2 783.7zM243 841.3c0 0 27.2-46.6 38.4-83.2l0.8 0.3c2.3-6.3 8.2-10.8 15.3-10.8 9.3 0 16.8 7.5 16.8 16.8 0 2.2-0.4 4.3-1.2 6.3l0.4 0.2c0 0-20.6 60.9-37.6 88.3-1.8 8.7-9.2 15.3-18.4 15.3-10.6 0-19.2-8.7-19.2-19.3 0-5.3 2-10 5.3-13.5L243 841.3 243 841.3zM313.4 866.9c0 0 75.2-138 44.8-262.5 0 0-28-143.9 32-192.1l0.4 0.3c2.7-2.6 6.3-4.2 10.4-4.2 8.6 0 15.6 7 15.6 15.6 0 2.5-0.6 4.8-1.6 6.9l0.8 0.6c0 0-56.2 48.2-12.8 211.3 0 0-0.3 146.1-64 249.7l-0.5-0.5c-3.1 3.1-7.4 5.1-12.2 5.1-9.8 0-17.8-8-17.8-17.8C308.6 874.5 310.4 870.2 313.4 866.9L313.4 866.9 313.4 866.9zM377.4 905.3c0 0 80.7-136.6 57.6-275.3 0 0-39.3-175.1 44.8-198.5 0 0 91.3-32.7 121.7 70.4 0 0 13 83.1 6.4 160l-0.2 0c-0.4 8.7-7.1 15.7-15.9 15.7-9 0-16.3-7.3-16.3-16.4 0-2 0.4-3.8 1-5.6l-0.6-0.1c0 0 27.3-208.2-64-204.9 0 0-80-3.1-51.2 134.4 0 0 38.6 175.7-50.4 337.7-1.6 8.9-9.1 15.5-18.4 15.5-10.6 0-19.2-8.6-19.2-19.3 0-5.3 2-10.1 5.3-13.5L377.4 905.3 377.4 905.3zM473.5 860.6l0.7 0.6c2.7-2.4 6.1-3.9 10-3.9 8.7 0 15.7 7.1 15.7 15.8 0 2.3-0.4 4.5-1.3 6.4l0.4 0.3c-8.4 37.1-30.6 54.6-31.9 57.5-2.7 5-7.9 8.5-14.1 8.5-9.1 0-16.5-7.4-16.5-16.5 0-5 2.1-9.4 5.6-12.4C449.7 902.7 473.5 860.6 473.5 860.6L473.5 860.6zM485.7 812.1c0-3.2 0.8-6.1 2-8.7l-1.5-0.5c46.5-122.5 6.4-288.1 6.4-288.1l1.1-0.3c-0.1-0.8-0.2-1.6-0.2-2.5 0-10.9 8.4-19.8 19.3-19.8 7.4 0 13.8 4.1 17.1 10.2l1.1-0.4c35 185.6-6.4 313.7-6.4 313.7l-1.3-0.4c-1.5 9.1-9 16.1-18.5 16.1C494.3 831.4 485.7 822.8 485.7 812.1L485.7 812.1zM524.7 918.2c44-63.2 51.2-185.7 51.2-185.7l0 0c0-0.1 0-0.1 0-0.1 0-9 7-16.4 16-16.4 9 0 16.3 7.3 16.3 16.4 0 1.7-0.3 3.3-0.8 4.8-14.6 145.3-45.2 192.6-50.1 199.2-1.9 8.5-9.2 14.9-18.3 14.9-10.6 0-19.2-8.7-19.2-19.3 0-5.3 2-10 5.3-13.5L524.7 918.2 524.7 918.2zM646.3 508.4C608.2 345.5 467 399.6 467 399.6l-0.3-0.7c-0.9 0.1-1.7 0.3-2.6 0.3-9.6 0-17.4-7.8-17.4-17.5 0-9.3 6.9-16.8 16-17.4 111.2-39.8 183.5 54.4 183.5 54.4 81.4 142.7 9.4 439.1-4.3 491.3 0 9.1-7.1 16.4-16.1 16.4-9.1 0-16.5-7.4-16.5-16.5 0-4.8 1.9-9 5.1-12.1C668.8 711.8 646.3 508.4 646.3 508.4L646.3 508.4zM672.6 393.1c-21-22.7-97.8-95.5-199.1-70.3 0 0-136.6 16.5-160.1 179.2 0 0 36.4 122.1 12.8 185.7l-0.9-0.2c-1.1 9.6-8.8 16.9-18.6 16.9-10.6 0-19.3-8.6-19.3-19.3 0-1.3 0.2-2.6 0.4-3.9l0 0c0 0 21.4-80.5-12.8-172.8 0 0-0.6-184.7 198.4-224.1 0 0 129.8-25.5 226.8 85.5 5.8 3.4 9.8 9.7 9.8 16.9 0 10.8-8.4 19.6-19.1 19.6C682.4 406.3 675.2 400.8 672.6 393.1L672.6 393.1zM697.5 457.2l0.6-0.2c-0.7-2-1.1-4-1.1-6.2 0-10.8 8.4-19.6 19.1-19.6 8.7 0 16 5.8 18.5 13.6l1.3-0.4c45.3 292.6-12.8 448.2-12.8 448.2l-1.5-1.5c-3 3-7.1 4.9-11.8 4.9-9.5 0-17.2-7.7-17.2-17.2 0-4.8 1.9-9.1 4.9-12.2C747.9 591.7 697.5 457.2 697.5 457.2L697.5 457.2zM780.8 815.7c15-156.7 0-320.1 0-320.1C772.2 344.4 639.9 278 639.9 278l0.7-0.8c-2.6-2.8-4.1-6.5-4.1-10.5 0-8.7 6.7-15.7 15.3-15.7 2.6 0 5 0.7 7.1 1.8l0.2-0.3c120.6 43.6 153.7 204.9 153.7 204.9 20.4 152.2 6.4 364.9 6.4 364.9l-0.4-0.1c0 0.4 0.2 0.9 0.2 1.4 0 10.8-8.4 19.6-19.1 19.6-10.8 0-19.5-8.8-19.5-19.6 0-2.7 0.5-5.3 1.5-7.6L780.8 815.7 780.8 815.7zM851.2 553.2c19.9-193-115.2-300.9-115.2-300.9C598.5 125.1 371 201.2 371 201.2l-0.1-0.5c-0.5 0-0.9 0.2-1.4 0.2-8.9 0-16.1-7.3-16.1-16.2 0-7.3 4.7-13.5 11.3-15.5l0-0.1c250.9-93.3 409.7 70.4 409.7 70.4C899.8 338 889.6 572.4 889.6 572.4l-3.6-1.8c-3.4 5.1-9.1 8.5-15.8 8.5-10.8 0-19.5-8.8-19.5-19.6 0-2.1 0.4-4.2 1-6.1L851.2 553.2 851.2 553.2zM863.5 636.4c0-10.8 8.4-19.6 19.1-19.6 8.6 0 15.9 5.7 18.5 13.5l1.3-0.2c4.9 59.3 0 102.4 0 102.4l-0.3 0c0 10.8-8.3 19.5-19.1 19.5-10.8 0-19.5-8.8-19.5-19.6 0-2.2 0.4-4.3 1.1-6.3 2.6-30.5 0.6-70.4-0.2-84.4C863.8 640 863.5 638.3 863.5 636.4L863.5 636.4z" p-id="1923"></path></svg>