<?xml version="1.0" encoding="UTF-8"?>
<svg width="16px" height="12px" viewBox="0 0 16 12" version="1.1" xmlns="http://www.w3.org/2000/svg" xmlns:xlink="http://www.w3.org/1999/xlink">
    <!-- Generator: Sketch 48.2 (47327) - http://www.bohemiancoding.com/sketch -->
    <title>钻石</title>
    <desc>Created with Sketch.</desc>
    <defs></defs>
    <g id="跟团游" stroke="none" stroke-width="1" fill="none" fill-rule="evenodd" transform="translate(-16.000000, -831.000000)">
        <g id="行程内容" transform="translate(0.000000, 751.000000)" fill="#6C6C6C" fill-rule="nonzero">
            <g id="钻石" transform="translate(16.000000, 80.000000)">
                <path d="M14.9006779,4.40762998 L5.96485388,4.40762998 C5.79479494,4.40762998 5.67111572,4.26849086 5.67111572,4.11389183 C5.67111572,3.94383289 5.81025485,3.82015367 5.96485388,3.82015367 L14.1122228,3.82015367 L10.5564451,0.635413635 L4.65076212,0.635413635 L1.09498441,3.82015367 L3.5376491,3.82015367 C3.70770803,3.82015367 3.83138725,3.95929279 3.83138725,4.11389183 C3.83138725,4.28395076 3.69224813,4.40762998 3.5376491,4.40762998 L0.306529355,4.40762998 C0.18285013,4.40762998 0.074630809,4.33033047 0.0282510993,4.20665124 C-0.0181286105,4.08297202 0.0127911962,3.95929279 0.105550615,3.88199328 L4.32610415,0.0943170274 C4.38794377,0.0479373182 4.44978338,0.0170175123 4.52708289,0.0170175119 L10.6646644,0.0170175119 C10.7419639,0.0170175119 10.8038035,0.0479373182 10.8656432,0.0943170274 L15.0861967,3.88199328 C15.1789561,3.95929279 15.2098759,4.09843192 15.1634962,4.20665124 C15.1325764,4.33033047 15.0243571,4.40762998 14.9006779,4.40762998 Z" id="Shape"></path>
                <path d="M7.6036036,11.9829825 C7.52630409,11.9829825 7.44900457,11.9520627 7.38716496,11.8902231 C7.30986545,11.8129236 0.414748676,4.63952853 0.105550615,4.31487057 C-0.0181286101,4.19119134 -0.0181286101,4.0056725 0.105550615,3.88199328 C0.229229839,3.75831405 0.414748676,3.75831405 0.538427901,3.88199328 C0.832166059,4.17573144 6.41319107,9.98865499 7.61906351,11.2409071 L14.6996991,3.89745318 C14.8079184,3.77377396 15.0088972,3.77377396 15.1325764,3.88199328 C15.2562556,3.9902126 15.2562556,4.19119134 15.1480363,4.31487057 L7.85096205,11.8902231 C7.75820263,11.9520627 7.68090312,11.9829825 7.6036036,11.9829825 Z" id="Shape"></path>
                <path d="M7.6036036,11.9829825 C7.49538428,11.9829825 7.38716496,11.9211429 7.34078525,11.8283835 L3.22845103,4.25303095 C3.19753123,4.19119134 3.18207133,4.09843192 3.19753123,4.03659231 L4.24880464,0.248916058 C4.29518435,0.0943170272 4.46524328,0.00155760901 4.61984231,0.0324774148 C4.77444134,0.078857124 4.86720076,0.248916058 4.83628095,0.403515089 L3.81592735,4.06751212 L7.88188186,11.5346453 C7.95918137,11.6737844 7.91280167,11.8593033 7.75820263,11.9366028 C7.69636302,11.9675226 7.64998331,11.9829825 7.6036036,11.9829825 Z" id="Shape"></path>
                <path d="M7.6036036,11.9829825 C7.55722389,11.9829825 7.51084419,11.9675226 7.46446448,11.9520627 C7.32532535,11.8747632 7.26348574,11.6892443 7.34078525,11.5501052 L11.4067398,4.08297202 L10.3863862,0.403515089 C10.3400064,0.248916058 10.4327659,0.0788571243 10.6028248,0.0324774148 C10.7574238,-0.0139022944 10.9274828,0.078857124 10.9738625,0.248916058 L12.0251359,4.03659231 C12.0405958,4.11389183 12.0405958,4.19119134 11.9942161,4.25303095 L7.88188186,11.8283835 C7.82004225,11.9211429 7.71182292,11.9829825 7.6036036,11.9829825 Z" id="Shape"></path>
            </g>
        </g>
    </g>
</svg>