<?xml version="1.0" encoding="UTF-8"?>
<svg width="16px" height="16px" viewBox="0 0 16 16" version="1.1" xmlns="http://www.w3.org/2000/svg" xmlns:xlink="http://www.w3.org/1999/xlink">
    <!-- Generator: Sketch 48.2 (47327) - http://www.bohemiancoding.com/sketch -->
    <title>景点icon</title>
    <desc>Created with Sketch.</desc>
    <defs></defs>
    <g id="跟团游" stroke="none" stroke-width="1" fill="none" fill-rule="evenodd" transform="translate(-16.000000, -1848.000000)">
        <g id="D1" transform="translate(0.000000, 1782.000000)">
            <g id="景点icon" transform="translate(16.000000, 66.000000)">
                <path d="M14.1246867,12.198687 L1.13827589,12.198687 C0.971167975,12.1961088 0.815763829,12.2949269 0.731541316,12.4573205 C0.647318804,12.619714 0.647318804,12.8205384 0.731541316,12.9829319 C0.815763829,13.1453255 0.971167975,13.2441436 1.13827589,13.2415654 L14.1246867,13.2415654 C14.3781928,13.2376543 14.5818754,13.0053475 14.5818754,12.7201262 C14.5818754,12.4349049 14.3781928,12.2025981 14.1246867,12.198687 Z M14.1052488,8.85500392 C14.1440374,8.86706542 14.1837847,8.87579284 14.2235321,8.87579284 C14.3735607,8.87611626 14.5144655,8.79479321 14.6017424,8.65750912 C15.1967496,7.73120422 15.5164295,6.61710659 15.5151477,5.47425381 C15.5108766,2.45113208 13.3324412,0.00235346335 10.645309,0 C8.71103137,0.0116803495 6.96386059,1.30237613 6.18558313,3.29455451 L5.47867247,2.18185665 C5.38908526,2.03977597 5.24224111,1.9575572 5.08746986,1.96282035 C4.93269862,1.9680835 4.7905368,2.06013021 4.70874129,2.20803893 L0.0705880213,10.5493014 C-0.0651910367,10.7936333 0.000800644545,11.115533 0.217984569,11.2682844 C0.435168493,11.4210359 0.721301532,11.3467953 0.857080607,11.1024634 L5.12765777,3.42232796 L9.36240999,10.0867478 C9.44591654,10.2179954 9.5788453,10.2982019 9.72222839,10.3038548 C9.86762012,10.316995 10.0034237,10.2405074 10.0954702,10.1172448 L12.0388208,7.49587883 L14.4699485,11.1384517 C14.5676279,11.2924206 14.7317611,11.3748099 14.8988594,11.3537506 C15.0659577,11.3326913 15.2098172,11.2114858 15.2747913,11.0370178 C15.3397653,10.8625498 15.3156649,10.6621789 15.2118124,10.5134111 L14.1052488,8.85500392 Z" id="Shape" fill="#000000" fill-rule="nonzero"></path>
                <path d="M12.7331797,14.2845419 L2.52978289,14.2845419 C2.27379806,14.2845419 2.06628136,14.5179982 2.06628136,14.8059812 C2.06628136,15.0939641 2.27379806,15.3274204 2.52978289,15.3274204 L12.7331797,15.3274204 C12.8987728,15.3274204 13.0517872,15.2280346 13.1345838,15.0667008 C13.2173804,14.9053669 13.2173804,14.7065954 13.1345838,14.5452615 C13.0517872,14.3839277 12.8987728,14.2845419 12.7331797,14.2845419 Z" id="Path" fill="#FFD921"></path>
                <path d="M13.7687907,8.35097052 L12.4287112,6.34258373 C12.3433553,6.21556012 12.2112685,6.13912064 12.0697766,6.13486596 C11.9282846,6.13061128 11.7927567,6.19900356 11.7014911,6.32071613 L9.76781584,8.93011862 L6.73838552,4.16298248 C6.84410563,4.10738833 6.92675484,4.00815777 6.96919926,3.88586217 C7.55948739,2.1787773 9.01723691,1.05100022 10.6453962,1.04179978 C12.8206065,1.04366293 14.584135,3.02606356 14.587273,5.47317514 C14.587273,6.40151837 14.3311813,7.29171589 13.8474138,8.04894272 C13.7939847,8.13800227 13.7665073,8.24355568 13.7687907,8.35097052 Z" id="Path" fill="#FFD921"></path>
            </g>
        </g>
    </g>
</svg>