<?xml version="1.0" encoding="UTF-8"?>
<svg width="16px" height="16px" viewBox="0 0 16 16" version="1.1" xmlns="http://www.w3.org/2000/svg" xmlns:xlink="http://www.w3.org/1999/xlink">
    <!-- Generator: Sketch 48.2 (47327) - http://www.bohemiancoding.com/sketch -->
    <title>餐饮icon</title>
    <desc>Created with Sketch.</desc>
    <defs></defs>
    <g id="跟团游" stroke="none" stroke-width="1" fill="none" fill-rule="evenodd" transform="translate(-16.000000, -2131.000000)">
        <g id="D1" transform="translate(0.000000, 1782.000000)">
            <g id="餐饮icon" transform="translate(16.000000, 349.000000)">
                <path d="M3.72720892,16 C3.21128792,16 2.63984179,15.8514286 2.20026785,15.6034286 C1.58717788,15.2582857 1.24940001,14.7485714 1.24940001,14.1691429 C1.24940001,14.1485714 1.24940001,14.1291429 1.25171355,14.1097143 L1.83704096,8.32914286 C1.310709,7.98628571 0.869978288,7.464 0.547238472,6.79771429 C0.18220085,6.01367118 -0.00456110592,5.16014235 8.45910288e-05,4.29714286 C8.45910288e-05,3.16571429 0.381819857,2.096 1.07241366,1.28685714 C1.3989059,0.899164292 1.80144758,0.580771869 2.25579298,0.350857143 C2.71128606,0.120606693 3.21555664,0.000364053475 3.72720892,0 C4.23618927,0 4.73013157,0.118857143 5.19746808,0.352 C5.64166911,0.573714286 6.04075598,0.889142857 6.38200418,1.288 C7.07259798,2.09714286 7.45317647,3.16685714 7.45317647,4.29828571 C7.45317647,5.21257143 7.2680927,6.08228571 6.92106064,6.81485714 C6.5994776,7.48685714 6.15411979,8.00685714 5.61853364,8.34057143 L6.2015475,14.1097143 C6.20366098,14.1290757 6.20481912,14.1485273 6.20501783,14.168 C6.20501783,14.7554286 5.86723995,15.2674286 5.25183643,15.6102857 C4.78376581,15.8620015 4.26011208,15.9958541 3.72720892,16 Z M12.2734518,16 C11.7575308,16 11.1860847,15.8514286 10.7465107,15.6034286 C10.1334207,15.2582857 9.7944861,14.7485714 9.7944861,14.1691429 C9.7944861,14.1485714 9.79564287,14.1291429 9.79795642,14.1097143 L10.3740296,8.42285714 C10.0200569,8.24 9.66839779,7.92228571 9.3618528,7.49942857 C8.82659408,6.74232211 8.54171034,5.84006442 8.54632746,4.91657143 L8.54632746,1.21371429 C8.54632746,0.883605801 8.81719185,0.616 9.15132002,0.616 C9.48544818,0.616 9.75631257,0.883605801 9.75631257,1.21371429 L9.75631257,4.91657143 C9.75631257,5.58171429 9.95296407,6.23428571 10.3092503,6.752 C10.6250495,7.21028571 10.9454758,7.38742857 11.0322338,7.40342857 C11.2014339,7.40582671 11.3618842,7.47812501 11.4746469,7.60277826 C11.5874096,7.7274315 11.6421772,7.89304522 11.6256586,8.05942857 L11.005628,14.1897143 C11.0345473,14.5097143 11.730925,14.8045714 12.2734518,14.8045714 C12.5823103,14.8045714 12.9478508,14.7131429 13.2034977,14.5691429 C13.3515647,14.4868571 13.5273943,14.3554286 13.5401188,14.1897143 L12.9200882,8.05942857 C12.903209,7.89266323 12.9579726,7.72655768 13.0710284,7.60160629 C13.1840842,7.47665491 13.3450447,7.40433808 13.5146698,7.40228571 C13.600271,7.38742857 13.9218541,7.21028571 14.2376532,6.752 C14.6022407,6.20753253 14.7947105,5.56824804 14.790591,4.91542857 L14.790591,1.21485714 C14.780866,0.995286675 14.8938924,0.788155641 15.0849039,0.675502637 C15.2759154,0.562849633 15.5140949,0.562849633 15.7051064,0.675502637 C15.8961179,0.788155641 16.0091444,0.995286675 15.9994193,1.21485714 L15.9994193,4.91428571 C15.9994193,5.85371429 15.710226,6.77142857 15.1850508,7.49714286 C14.8785058,7.92114286 14.5256899,8.24 14.1728739,8.42285714 L14.7477904,14.1085714 C14.749913,14.1279321 14.7510712,14.1473841 14.7512607,14.1668571 C14.7512607,14.7542857 14.4134828,15.2662857 13.7980793,15.6091429 C13.3301129,15.8612565 12.8064532,15.9955032 12.2734518,16 Z" id="Shape" fill="#000000" fill-rule="nonzero"></path>
                <path d="M2.45475803,14.2125714 C2.48367737,14.5337143 3.18352536,14.8308571 3.72720892,14.8308571 C4.03722422,14.8308571 4.40392143,14.7382857 4.66072516,14.5942857 C4.80994894,14.512 4.98462175,14.3794286 4.9996598,14.2137143 L4.37615887,8.05942857 C4.34974999,7.79735412 4.49941605,7.54890295 4.74516963,7.44685714 C5.30389124,7.21485714 5.64513944,6.69485714 5.83253675,6.29942857 C6.10437853,5.73142857 6.25360231,5.016 6.25360231,4.28457143 C6.25360231,3.43085714 5.97250635,2.632 5.46352599,2.03657143 C4.98577852,1.47657143 4.36921823,1.168 3.72720892,1.168 C3.08404283,1.168 2.46748254,1.47657143 1.98973507,2.03657143 C1.48075471,2.632 1.19965875,3.43085714 1.19965875,4.28457143 C1.19965875,5.74285714 1.82778677,7.04685714 2.72659981,7.45485714 C2.96246078,7.56199883 3.10331136,7.80540719 3.07710219,8.06057143 L2.45475803,14.2125714 Z" id="Path" fill="#FFD921"></path>
                <path d="M11.327211,5.51314286 C10.9930829,5.51314286 10.7222185,5.24553706 10.7222185,4.91542857 L10.7222185,1.21485714 C10.7124934,0.995286675 10.8255199,0.788155641 11.0165314,0.675502637 C11.2075429,0.562849633 11.4457224,0.562849633 11.6367339,0.675502637 C11.8277454,0.788155641 11.9407718,0.995286675 11.9310468,1.21485714 L11.9310468,4.91428571 C11.9310474,5.2439484 11.6608874,5.51136967 11.327211,5.512 L11.327211,5.51314286 Z" id="Path" fill="#FFD921"></path>
                <path d="M13.2000274,5.51314286 C12.8658992,5.51314286 12.5950348,5.24553706 12.5950348,4.91542857 L12.5950348,1.21485714 C12.5950348,0.884748658 12.8658992,0.617142857 13.2000274,0.617142857 C13.5341555,0.617142857 13.8050199,0.884748658 13.8050199,1.21485714 L13.8050199,4.91428571 C13.8050199,5.2443942 13.5341555,5.512 13.2000274,5.512 L13.2000274,5.51314286 Z" id="Path" fill="#FFD921"></path>
            </g>
        </g>
    </g>
</svg>