<?xml version="1.0" encoding="UTF-8"?>
<svg width="16px" height="14px" viewBox="0 0 16 14" version="1.1" xmlns="http://www.w3.org/2000/svg" xmlns:xlink="http://www.w3.org/1999/xlink">
    <!-- Generator: Sketch 48.2 (47327) - http://www.bohemiancoding.com/sketch -->
    <title>酒店icon</title>
    <desc>Created with Sketch.</desc>
    <defs></defs>
    <g id="跟团游" stroke="none" stroke-width="1" fill="none" fill-rule="evenodd" transform="translate(-16.000000, -2251.000000)">
        <g id="D1" transform="translate(0.000000, 1782.000000)">
            <g id="酒店icon" transform="translate(16.000000, 469.000000)">
                <path d="M15.7781202,13.8978843 L13.8847458,13.8978843 L10.9394967,13.8978843 L10.0979969,13.8978843 L7.57349769,13.8978843 L4.62824858,13.8978843 L2.10374936,13.8978843 L0.210374942,13.8978843 C0.0942479729,13.8978843 0,13.8040571 0,13.6879301 L0,13.2671803 C0,13.1506326 0.0942479729,13.0568053 0.210374942,13.0568053 L1.26224961,13.0568053 C1.26224961,13.0568053 1.26224961,13.0563846 1.26224961,13.0563846 L1.26224961,0.854638319 C1.26224961,0.390130454 1.63882075,0.0131385763 2.10374936,0.0131385763 L10.0979969,0.0131385763 C10.5625048,0.0131385763 10.9394967,0.390130454 10.9394967,0.854638319 L10.9394967,2.95838767 L13.8847458,2.95838767 C14.3492536,2.95838767 14.7262455,3.33537955 14.7262455,3.79988742 L14.7262455,13.0563846 C14.7262455,13.0563846 14.7262455,13.0568053 14.7262455,13.0568053 L15.7781202,13.0568053 C15.8942471,13.0568053 15.9884951,13.1506326 15.9884951,13.2671803 L15.9884951,13.6879301 C15.9884951,13.8040571 15.8942471,13.8978843 15.7781202,13.8978843 Z M4.62824858,13.0568053 L7.57349769,13.0568053 L7.57349769,8.84888587 L4.62824858,8.84888587 L4.62824858,13.0568053 Z M13.8847458,3.79988742 L10.9394967,3.79988742 L10.9394967,13.0568053 L13.8847458,13.0568053 L13.8847458,3.79988742 Z" id="Shape" fill="#000000" fill-rule="nonzero"></path>
                <path d="M10.0979969,13.0563846 L10.0979969,3.79988742 L10.0979969,0.854638319 L2.10374936,0.854638319 L2.10374936,13.0568053 L3.78674884,13.0568053 C3.78674884,13.0568053 3.78674884,13.0563846 3.78674884,13.0563846 L3.78674884,8.84930663 C3.78674884,8.38437802 4.16331997,8.00780689 4.62824858,8.00780689 L7.57349769,8.00780689 C8.03800555,8.00780689 8.41499744,8.38437802 8.41499744,8.84930663 L8.41499744,13.0563846 C8.41499744,13.0563846 8.41499744,13.0568053 8.41499744,13.0568053 L10.0979969,13.0568053 L10.0979969,13.0563846 Z" id="Path" fill="#FFD921"></path>
                <path d="M3.36599897,5.69326184 L3.36599897,5.27251197 C3.36599897,5.156385 3.46024694,5.06213703 3.57637391,5.06213703 L8.62537237,5.06213703 C8.74149934,5.06213703 8.83574731,5.156385 8.83574731,5.27251197 L8.83574731,5.69326184 C8.83574731,5.8093888 8.74149934,5.90363677 8.62537237,5.90363677 L3.57637391,5.90363677 C3.46024694,5.90363677 3.36599897,5.8093888 3.36599897,5.69326184 Z" id="Path" fill="#000000"></path>
                <path d="M8.62537237,3.37913755 L3.57637391,3.37913755 C3.46024694,3.37913755 3.36599897,3.28531032 3.36599897,3.16918336 L3.36599897,2.74843349 C3.36599897,2.63188578 3.46024694,2.53805855 3.57637391,2.53805855 L8.62537237,2.53805855 C8.74149934,2.53805855 8.83574731,2.63188578 8.83574731,2.74843349 L8.83574731,3.16918336 C8.83574731,3.28531032 8.74149934,3.37913755 8.62537237,3.37913755 Z" id="Path" fill="#000000"></path>
            </g>
        </g>
    </g>
</svg>