<?xml version="1.0" encoding="UTF-8"?>
<svg width="16px" height="18px" viewBox="0 0 16 18" version="1.1" xmlns="http://www.w3.org/2000/svg" xmlns:xlink="http://www.w3.org/1999/xlink">
    <!-- Generator: Sketch 48.2 (47327) - http://www.bohemiancoding.com/sketch -->
    <title>行程概览_icon-W</title>
    <desc>Created with Sketch.</desc>
    <defs></defs>
    <g id="PDP" stroke="none" stroke-width="1" fill="none" fill-rule="evenodd" transform="translate(-160.000000, -1317.000000)">
        <g id="行程概览" transform="translate(160.000000, 1302.000000)">
            <g id="行程概览_icon" transform="translate(0.000000, 15.000000)">
                <path d="M15.982706,2.21543583 C15.982706,1.00516323 14.9431374,0.0201899872 13.665294,0.0201899872 L2.30453402,0.0201899872 C2.29923492,0.0201899872 2.29461361,0.0209475244 2.28884211,0.0212583089 C2.28344031,0.0209475244 2.27840822,0.0201899872 2.27300642,0.0201899872 C1.02894994,0.0201899872 0.0166572529,1.00516323 0.0166572529,2.21543583 L0.0166572529,15.0490687 C0.0166572529,15.210832 0.0836970475,15.3649035 0.203255456,15.4764557 L2.04668549,17.2062823 C2.28309114,17.4276774 2.65706804,17.4276774 2.89343261,17.2062823 L4.77410013,15.441609 L6.72527856,17.272188 C6.96172529,17.4945544 7.33603081,17.4945544 7.572457,17.272188 L9.52375866,15.4415895 L11.4752246,17.272188 C11.5934069,17.3830993 11.7461566,17.4388462 11.8982901,17.4388462 C12.0508755,17.4388462 12.2038922,17.3830993 12.3220745,17.272188 L14.0884416,15.6151627 C14.2076919,15.5029306 14.2749987,15.3489369 14.2749987,15.1878728 L14.2749987,4.33187838 C15.2576945,4.07668544 15.982706,3.22542723 15.982706,2.21541641 L15.982706,2.21543583 Z M13.4088216,3.34133043 L3.68400513,3.28251446 C4.27623107,3.00797519 4.27664185,2.45621613 4.27623107,2.29031548 C4.27473171,1.67099963 4.17538383,1.39712078 4.00840051,1.09189154 L13.7444929,1.07639116 C14.3553273,1.07639116 14.9925546,1.68216845 14.9925546,2.24348413 C14.9925546,2.80464442 14.3476252,3.31266056 13.7368318,3.31266056 L13.4088216,3.34133043 Z" id="Shape" fill="#000000" fill-rule="nonzero"></path>
                <path d="M12.0124878,16.1282773 L10.0139666,14.2690413 C9.77230295,14.0435965 9.38937099,14.0435965 9.14721438,14.2690413 L7.1491656,16.1282773 L5.15084981,14.2690413 C4.90873427,14.0435965 4.52582285,14.0435965 4.28362516,14.2690413 L2.3577715,16.0603126 L1.09449037,14.8855191 L1.09449037,2.1107565 C1.09449037,1.54587341 1.57067009,1.08656766 2.15595379,1.08656766 C2.16121181,1.08656766 2.16589474,1.08510398 2.1707009,1.08510398 C2.1769448,1.08510398 2.18253145,1.08658692 2.18830295,1.08658692 L2.1904801,1.08658692 C2.80932478,1.08787726 3.31224647,1.54695191 3.31224647,2.1107565 C3.31224647,2.67548553 2.80819512,3.13519571 2.18830295,3.13519571 C1.84316303,3.13519571 1.56403594,3.40443528 1.56403594,3.73711369 C1.56403594,4.07019655 1.84316303,4.34018721 2.18830295,4.34018721 L13.1972888,4.34018721 L13.1972888,15.0255891 L12.0124673,16.128258 L12.0124878,16.1282773 Z" id="Path" fill="#FFD921"></path>
                <path d="M10.7132837,10.4861001 L3.29723235,10.4861001 C3.16218742,10.4861001 3.05332991,10.669371 3.05332991,10.8943158 C3.05332991,11.1194249 3.16218742,11.301258 3.29723235,11.301258 L10.7132837,11.301258 C10.8480205,11.301258 10.9569602,11.1194454 10.9569602,10.8943158 C10.9569602,10.6691656 10.848,10.4861001 10.7132837,10.4861001 Z M10.7132837,8.60420026 L3.29723235,8.60420026 C3.16218742,8.60420026 3.05332991,8.78673171 3.05332991,9.01255969 C3.05332991,9.23760719 3.16218742,9.41952246 3.29723235,9.41952246 L10.7132837,9.41952246 C10.8480205,9.41952246 10.9569602,9.23758665 10.9569602,9.01255969 C10.9569602,8.78673171 10.848,8.60420026 10.7132837,8.60420026 Z M10.7132837,6.72357381 L3.29723235,6.72357381 C3.16218742,6.72357381 3.05332991,6.90559178 3.05332991,7.13072144 C3.05332991,7.3557484 3.16218742,7.53840308 3.29723235,7.53840308 L10.7132837,7.53840308 C10.8480205,7.53840308 10.9569602,7.3557484 10.9569602,7.1307009 C10.9569602,6.90559178 10.848,6.72357381 10.7132837,6.72357381 Z" id="Shape" fill="#000000" fill-rule="nonzero"></path>
            </g>
        </g>
    </g>
</svg>